HIERARCHY
ROOT Hips
{
	OFFSET 0.00000 0.00000 0.00000
	CHANNELS 6 Xposition Yposition Zposition Zrotation Yrotation Xrotation 
	JOINT LHipJoint
	{
		OFFSET 0 0 0
		CHANNELS 3 Zrotation Yrotation Xrotation
		JOINT LeftHip
		{
			OFFSET 3.13874 -1.57224 1.49786
			CHANNELS 3 Zrotation Yrotation Xrotation
			JOINT LeftKnee
			{
				OFFSET 2.10955 -5.79594 0.00000
				CHANNELS 3 Zrotation Yrotation Xrotation
				JOINT LeftAnkle
				{
					OFFSET 2.41843 -6.64458 0.00000
					CHANNELS 3 Zrotation Yrotation Xrotation
					JOINT LeftToe
					{
						OFFSET 0.04713 -0.12948 1.66229
						CHANNELS 3 Zrotation Yrotation Xrotation
						End Site
						{
							OFFSET 0.00000 -0.00000 0.85167
						}
					}
				}
			}
		}
	}
	JOINT RHipJoint
	{
		OFFSET 0 0 0
		CHANNELS 3 Zrotation Yrotation Xrotation
		JOINT RightHip
		{
			OFFSET -3.13988 -1.57224 1.49786
			CHANNELS 3 Zrotation Yrotation Xrotation
			JOINT RightKnee
			{
				OFFSET -2.15006 -5.90725 0.00000
				CHANNELS 3 Zrotation Yrotation Xrotation
				JOINT RightAnkle
				{
					OFFSET -2.34496 -6.44273 0.00000
					CHANNELS 3 Zrotation Yrotation Xrotation
					JOINT RightToe
					{
						OFFSET -0.08699 -0.23900 1.55223
						CHANNELS 3 Zrotation Yrotation Xrotation
						End Site
						{
							OFFSET -0.00000 -0.00000 0.80281
						}
					}
				}
			}
		}
	}
	JOINT lowerback
	{
		OFFSET 0 0 0
		CHANNELS 3 Zrotation Yrotation Xrotation
		JOINT Chest
		{
			OFFSET 0.01292 1.96517 -0.16495
			CHANNELS 3 Zrotation Yrotation Xrotation
			JOINT Chest2
			{
				OFFSET 0.02122 1.88666 0.19706
				CHANNELS 3 Zrotation Yrotation Xrotation
				JOINT lowerneck
				{
					OFFSET 0 0 0
					CHANNELS 3 Zrotation Yrotation Xrotation
					JOINT Neck
					{
						OFFSET -0.01683 1.81591 0.07903
						CHANNELS 3 Zrotation Yrotation Xrotation
						JOINT Head
						{
							OFFSET 0.00815 1.74013 -0.47700
							CHANNELS 3 Zrotation Yrotation Xrotation
							End Site
							{
								OFFSET -0.00204 1.83225 -0.16933
							}
						}
					}
				}
				JOINT LeftCollar
				{
					OFFSET 0 0 0
					CHANNELS 3 Zrotation Yrotation Xrotation
					JOINT LeftShoulder
					{
						OFFSET 3.38482 1.41533 0.19802
CHANNELS 3 Zrotation Xrotation Yrotation
						JOINT LeftElbow
						{
OFFSET 0 -4.327120 0.000000
CHANNELS 3 Zrotation Xrotation Yrotation
							JOINT LeftWrist
							{
OFFSET 0 -3.285870 -0.000000
CHANNELS 3 Zrotation Xrotation Yrotation
								JOINT lhand
								{
									OFFSET 0 0 0
CHANNELS 3 Zrotation Xrotation Yrotation
									JOINT LFingers
									{
OFFSET 0 -0.433160 -0.000000
CHANNELS 3 Zrotation Xrotation Yrotation
										End Site
										{
OFFSET 0 -0.349220 -0.000000
										}
									}
								}
								JOINT LThumb
								{
OFFSET 0 0.000000 0.000000
CHANNELS 3 Zrotation Xrotation Yrotation
									End Site
									{
OFFSET 0 -0.354560 0.354560
									}
								}
							}
						}
					}
				}
				JOINT RightCollar
				{
					OFFSET 0 0 0
					CHANNELS 3 Zrotation Yrotation Xrotation
					JOINT RightShoulder
					{
						OFFSET -3.09725 1.62858 -0.14144
CHANNELS 3 Zrotation Xrotation Yrotation
						JOINT RightElbow
						{
OFFSET 0 -4.291040 0.000000
CHANNELS 3 Zrotation Xrotation Yrotation
							JOINT RightWrist
							{
OFFSET 0 -3.227200 -0.000000
CHANNELS 3 Zrotation Xrotation Yrotation
								JOINT rhand
								{
									OFFSET 0 0 0
CHANNELS 3 Zrotation Xrotation Yrotation
									JOINT RFingers
									{
OFFSET 0 -0.543620 -0.000000
CHANNELS 3 Zrotation Xrotation Yrotation
										End Site
										{
OFFSET 0 -0.438280 -0.000000
										}
									}
								}
								JOINT RThumb
								{
OFFSET 0 0.000000 0.000000
CHANNELS 3 Zrotation Xrotation Yrotation
									End Site
									{
OFFSET 0 -0.444970 0.444970
									}
								}
							}
						}
					}
				}
			}
		}
	}
}
MOTION
Frames: 4
Frame Time: 0.008333333333333333
24.738800 15.991200 1.718500 -100.701000 -84.486600 114.307000 0.000000 0.000000 0.000000 -26.390200 -32.654200 10.085100 0.000000 0.015600 0.042900 4.733600 12.861700 -46.612900 9.217900 -16.945900 -56.840700 0.000000 0.000000 0.000000 27.757300 32.939300 -0.952700 -0.109900 2.137400 -5.885400 1.508300 -24.648100 -23.155400 -0.436900 4.241700 -11.757500 3.477000 0.767000 8.091800 2.905500 1.672100 -9.600900 0.986500 0.495200 -15.229200 -9.959100 -7.832600 -12.852700 8.160300 -11.081200 21.685600 3.030500 -5.247500 10.033700 0.000000 -0.000000 0.000000 4.138000 9.799200 -39.242400 19.388700 -29.898800 5.223200 31.092600 19.030900 -30.693500 0.000000 0.000000 0.000000 -7.125000 0.000000 0.000000 -0.320900 64.708900 0.153000 0.000000 -0.000000 0.000000 -22.380000 9.942500 49.015800 -21.200400 -32.061500 -6.156000 -20.183200 -7.230300 22.651000 0.000000 0.000000 0.000000 7.125000 0.000000 -0.000000 9.240000 53.714000 -1.992900
24.753043 15.986298 1.764836 -104.860162 -84.375430 118.392172 0.000000 0.000000 0.000000 -27.928267 -34.879356 12.792301 0.003699 -0.378027 -1.038649 5.400342 13.910231 -49.682929 9.025156 -16.823724 -56.176917 0.000000 0.000000 0.000000 27.821024 33.107905 -0.343300 -0.139866 2.409221 -6.637971 1.565642 -24.914926 -23.173528 -0.420067 4.160126 -11.527576 3.423357 0.815463 7.827286 2.905870 1.710020 -9.601547 1.010084 0.518877 -15.059763 -10.330252 -8.077784 -12.624348 7.841403 -11.325459 21.956126 2.948186 -5.431920 10.116569 0.000000 0.000000 0.000000 4.057351 9.910555 -39.483422 19.575895 -30.127984 5.316890 31.047281 18.771103 -30.797918 0.000000 0.000000 0.000000 -7.125000 0.000000 0.000000 -0.431238 64.807214 0.206643 0.000000 0.000000 0.000000 -22.411631 9.645800 49.162763 -21.346160 -32.230197 -6.233505 -19.930617 -6.117861 24.022497 0.000000 0.000000 0.000000 7.125000 0.000000 0.000000 10.064156 55.062282 -2.507685
24.766012 15.978762 1.809473 -109.292093 -84.258822 122.727170 0.000000 0.000000 0.000000 -29.817960 -37.282110 15.843906 0.013092 -0.727806 -2.000043 6.234485 14.909136 -53.110873 8.815842 -16.687442 -55.450508 0.000000 0.000000 0.000000 27.847019 33.313134 0.241797 -0.168047 2.639659 -7.277270 1.643718 -25.222031 -23.069971 -0.434420 4.229553 -11.723292 3.174017 0.916271 7.445846 2.951362 1.789323 -9.571944 1.185349 0.588100 -14.785552 -10.740068 -8.303084 -12.152544 7.598049 -11.556038 21.989996 2.909889 -5.613111 10.075289 0.000000 0.000000 0.000000 3.917134 9.977808 -39.745943 19.670297 -30.243047 5.364268 30.974515 18.565434 -30.634581 0.000000 0.000000 0.000000 -7.125000 0.000000 0.000000 -0.446998 64.612450 0.212190 0.000000 0.000000 0.000000 -22.536904 9.485145 49.315504 -21.499568 -32.406712 -6.315513 -18.957021 -5.751756 25.271375 0.000000 0.000000 0.000000 7.125000 0.000000 0.000000 11.650282 56.124029 -3.216129
24.777395 15.968205 1.851248 -113.646664 -84.105403 126.974259 0.000000 0.000000 0.000000 -32.135967 -39.962388 19.364473 0.024615 -1.006550 -2.766763 7.442311 15.109664 -57.145696 8.451223 -16.439839 -54.169818 0.000000 0.000000 0.000000 27.867742 33.546931 0.789888 -0.193747 2.833594 -7.815923 1.710459 -25.487923 -22.996324 -0.443862 4.274527 -11.850204 3.102271 0.896218 7.334638 2.907268 1.737422 -9.591565 1.187571 0.567621 -14.737254 -10.946632 -8.474417 -12.145757 7.308157 -11.714993 22.260120 2.815141 -5.735610 10.183226 0.000000 0.000000 0.000000 3.905042 10.139694 -39.549386 19.653935 -30.223073 5.356040 31.293917 18.736914 -30.279245 0.000000 0.000000 0.000000 -7.125000 0.000000 0.000000 0.135325 64.323143 -0.062359 0.000000 0.000000 0.000000 -22.488806 9.240000 49.776359 -21.616470 -32.540771 -6.378321 -18.096063 -5.799286 26.034103 0.000000 0.000000 0.000000 7.125000 0.000000 0.000000 12.930250 56.706747 -3.756867
